<svg width="368" height="76" viewBox="0 0 368 76" fill="none" xmlns="http://www.w3.org/2000/svg">
<g clip-path="url(#clip0_2951_41676)">
<path d="M48.4399 31.9922L40.793 38.0919L39.2761 39.3104L29.5512 47.0648L19.7155 39.2619L18.1847 38.0434L10.5586 31.9922H0.556641V74.5445H10.6001V44.9324L16.4046 49.2596L18.2194 50.6097L27.1408 57.2563H31.9686L40.6891 50.7551L42.4969 49.4119L48.5092 44.9324V74.5445H58.5457V31.9922H48.4399Z" fill="#212121"/>
<path d="M29.5253 31.7734L29.2118 32.4471L28.8983 31.7734L17.043 37.3788V74.7963H18.8467V38.5365L29.2118 33.6337L39.5792 38.5365V74.7963H41.3806V37.3788L29.5253 31.7734Z" fill="#999999"/>
<path d="M28.2569 32.7939C27.7381 30.376 24.6208 29.5061 21.8722 28.7388C20.9141 28.4711 20.0089 28.2168 19.2517 27.9068C16.1432 26.6376 12.6197 25.1989 10.6416 21.746C9.35235 19.4954 9.35456 16.5778 10.6439 14.3161C11.8073 12.2796 13.7722 11.1442 16.0969 11.2714C20.3599 11.4855 23.7929 15.1971 26.5879 22.6159C27.3605 24.668 28.0869 26.7581 28.7448 28.8258C28.8596 29.1849 29.0362 29.5797 29.2172 29.9879C29.5881 30.8244 29.97 31.692 30.0341 32.5285L28.2547 32.7917L28.2569 32.7939ZM15.7723 13.0848C13.7324 13.0848 12.6639 14.4276 12.2069 15.2284C11.2311 16.9347 11.2289 19.1363 12.2025 20.8337C13.8715 23.7468 16.9513 25.0026 19.9294 26.2205C20.5895 26.4904 21.4461 26.7291 22.3535 26.9834C23.7885 27.3826 25.3869 27.831 26.7601 28.5447C26.1838 26.7826 25.5613 25.0116 24.9056 23.265C22.3932 16.5935 19.4835 13.2655 16.0086 13.0893L15.7745 13.0826L15.7723 13.0848Z" fill="#999999"/>
<path d="M30.4982 32.7947L28.7188 32.5315C28.7828 31.6928 29.1669 30.8251 29.5378 29.9864C29.7166 29.5805 29.8932 29.1879 30.008 28.8288C30.6748 26.741 31.4011 24.651 32.165 22.6189C34.9599 15.2001 38.3929 11.4885 42.6559 11.2744C44.9696 11.1539 46.9477 12.2826 48.1112 14.3235C49.4005 16.5853 49.4005 19.4984 48.1112 21.749C46.1287 25.2064 42.6074 26.6429 39.5011 27.9098C38.7439 28.2199 37.8388 28.4719 36.8806 28.7396C34.132 29.5091 31.0148 30.379 30.4937 32.7969L30.4982 32.7947ZM42.9805 13.0856L42.7465 13.0923C39.2738 13.2663 36.364 16.5965 33.8516 23.268C33.2004 24.9967 32.5778 26.77 31.9972 28.5455C33.3704 27.8317 34.9687 27.3834 36.4037 26.9841C37.3111 26.7298 38.1677 26.4912 38.8278 26.2213C41.8038 25.0056 44.8813 23.7498 46.5525 20.8345C47.5261 19.1393 47.5261 16.9377 46.5503 15.2314C46.0955 14.4284 45.0226 13.0856 42.9805 13.0856Z" fill="#999999"/>
</g>
<path d="M71.418 31.9531H81.459V74.8177H71.418V31.9531Z" fill="#212121"/>
<path d="M117.586 66.2485V74.8177H95.4824V31.9531H105.4V66.2485H117.586Z" fill="#212121"/>
<path d="M151.157 66.2485V74.8177H129.053V31.9531H138.97V66.2485H151.157Z" fill="#212121"/>
<path d="M172.543 39.9126V49.6464H188.769V57.4225H172.543V66.8537H188.769V74.8131H162.621V31.9531H188.769V39.9126H172.543Z" fill="#212121"/>
<path d="M218.155 31.9531C232.36 31.9531 240.443 42.4251 240.443 53.3877C240.443 64.3503 232.424 74.8177 218.155 74.8177H202.42V31.9531H218.155ZM212.337 40.527V66.2439H217.665C225.688 66.2439 230.342 59.9992 230.342 53.3831C230.342 46.7671 225.688 40.527 217.665 40.527H212.337Z" fill="#212121"/>
<path d="M250.193 53.3904C250.193 41.6347 258.643 30.8555 272.912 30.8555C287.18 30.8555 295.566 41.6347 295.566 53.3904C295.566 65.1462 287.116 75.9254 272.912 75.9254C258.708 75.9254 250.193 65.1462 250.193 53.3904ZM285.465 53.3904C285.465 46.348 280.688 39.8007 272.912 39.8007C265.136 39.8007 260.358 46.3526 260.358 53.3904C260.358 60.4283 265.071 66.9848 272.912 66.9848C280.752 66.9848 285.465 60.4329 285.465 53.3904Z" fill="#212121"/>
<path d="M333.304 59.8754V31.9531H343.166V74.8177H332.813L317.38 47.2668V74.8177H307.463V31.9531H317.811L333.304 59.8754Z" fill="#212121"/>
<path d="M357.195 31.9531H367.236V74.8177H357.195V31.9531Z" fill="#212121"/>
<defs>
<clipPath id="clip0_2951_41676">
<rect width="58.3146" height="74.0754" fill="white" transform="translate(0.230469 0.46875)"/>
</clipPath>
</defs>
</svg>
